<svg width="302" height="140" viewBox="0 0 302 247" fill="none" xmlns="http://www.w3.org/2000/svg">
<path d="M210.401 246.843V208.805H222.651C225.767 208.805 228.4 209.288 230.549 210.255C232.734 211.186 234.489 212.494 235.814 214.177C237.175 215.861 238.16 217.884 238.769 220.248C239.378 222.576 239.682 225.137 239.682 227.931C239.682 230.689 239.378 233.232 238.769 235.56C238.16 237.853 237.175 239.841 235.814 241.524C234.489 243.172 232.734 244.479 230.549 245.446C228.4 246.377 225.767 246.843 222.651 246.843H210.401ZM227.916 227.931C227.916 225.102 227.469 222.917 226.573 221.377C225.678 219.801 224.442 219.013 222.866 219.013H222.168V236.635H222.866C224.442 236.635 225.678 235.865 226.573 234.325C227.469 232.749 227.916 230.618 227.916 227.931Z" fill="white"/>
<path d="M191.908 208.805H203.728V246.843H191.908V208.805Z" fill="white"/>
<path d="M171.705 233.196H170.738V246.843H159.562V208.805H173.693C175.877 208.805 177.776 209.091 179.388 209.664C181.035 210.237 182.378 211.061 183.417 212.136C184.456 213.21 185.226 214.517 185.727 216.058C186.265 217.562 186.533 219.263 186.533 221.162C186.533 222.451 186.39 223.615 186.103 224.654C185.817 225.693 185.459 226.624 185.029 227.448C184.599 228.236 184.116 228.898 183.578 229.436C183.041 229.973 182.504 230.367 181.967 230.618L188.038 246.843H175.734L171.705 233.196ZM170.738 218.529V225.191H171.705C172.027 225.191 172.385 225.155 172.779 225.084C173.173 224.976 173.531 224.797 173.854 224.546C174.176 224.296 174.445 223.955 174.66 223.526C174.875 223.096 174.982 222.541 174.982 221.86C174.982 221.144 174.875 220.571 174.66 220.141C174.481 219.711 174.23 219.371 173.908 219.12C173.621 218.869 173.299 218.708 172.94 218.637C172.618 218.565 172.314 218.529 172.027 218.529H170.738Z" fill="white"/>
<path d="M138.122 218.422V223.418H140.056C140.808 223.418 141.399 223.221 141.829 222.827C142.294 222.397 142.527 221.717 142.527 220.786C142.527 219.998 142.294 219.407 141.829 219.013C141.363 218.619 140.772 218.422 140.056 218.422H138.122ZM138.122 231.692V237.172H140.163C140.987 237.172 141.65 236.939 142.151 236.474C142.688 235.972 142.957 235.31 142.957 234.486C142.957 233.519 142.67 232.82 142.097 232.391C141.524 231.925 140.88 231.692 140.163 231.692H138.122ZM148.33 227.179C149.834 227.645 151.141 228.594 152.252 230.027C153.398 231.459 153.971 233.358 153.971 235.722C153.971 237.799 153.631 239.554 152.95 240.987C152.27 242.384 151.356 243.53 150.21 244.425C149.1 245.285 147.81 245.912 146.342 246.306C144.909 246.664 143.423 246.843 141.882 246.843H127.323V208.805H140.539C141.793 208.805 143.136 208.93 144.569 209.181C146.001 209.396 147.309 209.861 148.491 210.578C149.709 211.258 150.712 212.279 151.499 213.64C152.287 214.965 152.681 216.72 152.681 218.905C152.681 220.947 152.27 222.63 151.446 223.955C150.658 225.281 149.601 226.302 148.276 227.018L148.33 227.179Z" fill="white"/>
<path d="M114.692 246.843H103.194V234.325L93.47 208.805H106.096L108.943 222.827H109.104L112.113 208.805H124.524L114.692 234.325V246.843Z" fill="white"/>
<path d="M79.0801 232.283H73.9223V246.843H62.3174V208.805H73.9223V221.806H79.0801V208.805H90.685V246.843H79.0801V232.283Z" fill="white"/>
<path fill-rule="evenodd" clip-rule="evenodd" d="M62.3175 50.995H91.0794V194.805H62.3175V132.487H47.9365V161.249H28.7619V132.487H0V113.312H28.7619V84.5505H47.9365V113.312H62.3175V50.995ZM239.683 50.995H210.921V194.805H239.683V132.487H254.063V161.249H273.238V132.487H302V113.312H273.238V84.5506H254.063V113.312H239.683V50.995ZM154.595 113.312H189.349L151.359 194.805H196.54V50.995H154.595V113.312ZM146.889 132.639V194.805H105.46V50.995H150.18L112.651 132.487L146.889 132.639Z" fill="white"/>
<path d="M230.12 36.9967H218.937V24.8213L209.479 0H221.759L224.529 13.6386H224.685L227.612 0H239.683L230.12 24.8213V36.9967Z" fill="white"/>
<path d="M196.351 9.3537V14.2134H198.233C198.964 14.2134 199.539 14.0218 199.957 13.6386C200.41 13.2206 200.636 12.5587 200.636 11.6529C200.636 10.8865 200.41 10.3117 199.957 9.92851C199.504 9.5453 198.929 9.3537 198.233 9.3537H196.351ZM196.351 22.2608V27.5908H198.337C199.138 27.5908 199.783 27.3644 200.271 26.9115C200.793 26.4238 201.054 25.7793 201.054 24.978C201.054 24.0374 200.776 23.3581 200.218 22.9401C199.661 22.4872 199.034 22.2608 198.337 22.2608H196.351ZM206.28 17.8713C207.743 18.3242 209.015 19.2474 210.095 20.6408C211.209 22.0343 211.767 23.8807 211.767 26.1799C211.767 28.2004 211.436 29.9074 210.774 31.3009C210.112 32.6596 209.224 33.7743 208.109 34.6453C207.029 35.4813 205.775 36.091 204.347 36.4742C202.953 36.8226 201.507 36.9967 200.009 36.9967H185.848V0H198.703C199.922 0 201.229 0.121929 202.622 0.365785C204.016 0.574806 205.287 1.02769 206.437 1.72442C207.621 2.38632 208.597 3.37917 209.363 4.70298C210.129 5.99194 210.513 7.69895 210.513 9.82399C210.513 11.8097 210.112 13.447 209.311 14.736C208.544 16.025 207.517 17.0178 206.228 17.7145L206.28 17.8713Z" fill="white"/>
<path d="M170.556 36.9967H159.373V9.61497H152.841V0H177.088V9.61497H170.556V36.9967Z" fill="white"/>
<path d="M135.156 0H146.6V26.5457H156.111V36.9967H135.156V0Z" fill="white"/>
<path d="M120.304 0H131.801V36.9967H120.304V0Z" fill="white"/>
<path d="M103.342 38.0419C100.903 38.0419 98.8306 37.6587 97.1236 36.8922C95.4166 36.091 94.0057 34.9936 92.8909 33.6002C91.811 32.2067 91.0097 30.5693 90.4872 28.6882C89.9995 26.807 89.7556 24.769 89.7556 22.5743V0H101.2V21.5814C101.2 23.3581 101.339 24.7168 101.618 25.6573C101.931 26.5631 102.576 27.016 103.551 27.016C104.526 27.016 105.171 26.5631 105.484 25.6573C105.798 24.7168 105.955 23.3581 105.955 21.5814V0H117.242V22.5743C117.242 24.769 116.963 26.807 116.406 28.6882C115.883 30.5693 115.047 32.2067 113.898 33.6002C112.783 34.9936 111.354 36.091 109.613 36.8922C107.871 37.6587 105.781 38.0419 103.342 38.0419Z" fill="white"/>
<path d="M72.8207 9.3537V14.2134H74.7019C75.4335 14.2134 76.0083 14.0218 76.4263 13.6386C76.8792 13.2206 77.1056 12.5587 77.1056 11.6529C77.1056 10.8865 76.8792 10.3117 76.4263 9.92851C75.9734 9.5453 75.3986 9.3537 74.7019 9.3537H72.8207ZM72.8207 22.2608V27.5908H74.8064C75.6076 27.5908 76.2521 27.3644 76.7398 26.9115C77.2624 26.4238 77.5237 25.7793 77.5237 24.978C77.5237 24.0374 77.245 23.3581 76.6876 22.9401C76.1302 22.4872 75.5031 22.2608 74.8064 22.2608H72.8207ZM82.7492 17.8713C84.2124 18.3242 85.4839 19.2474 86.5638 20.6408C87.6786 22.0343 88.236 23.8807 88.236 26.1799C88.236 28.2004 87.9051 29.9074 87.2432 31.3009C86.5813 32.6596 85.6929 33.7743 84.5781 34.6453C83.4982 35.4813 82.2441 36.091 80.8158 36.4742C79.4223 36.8226 77.9766 36.9967 76.4786 36.9967H62.3174V0H75.1722C76.3915 0 77.6979 0.121929 79.0913 0.365785C80.4848 0.574806 81.7564 1.02769 82.906 1.72442C84.0904 2.38632 85.0659 3.37917 85.8323 4.70298C86.5987 5.99194 86.9819 7.69895 86.9819 9.82399C86.9819 11.8097 86.5813 13.447 85.78 14.736C85.0136 16.025 83.9859 17.0178 82.6969 17.7145L82.7492 17.8713Z" fill="white"/>
</svg>
